# xmcd CD database file
#
# Track frame offsets:
#	150
#	21141
#	49566
#	66899
#	92408
#	122551
#	139912
#	159521
#	182842
#	205902
#	230435
#	252215
#	276911
#	291175
#
# Disc length: 4102 seconds
#
# Revision: 1
# Processed by: cddbd v1.5.2PL0 Copyright (c) Steve Scherf et al.
# Submitted via: CDex 1.51
#
DISCID=c510040e
DTITLE=Allen Toussaint - The Bright Mississippi
DYEAR=2009
DGENRE=R&B
TTITLE0=Egyptian Fantasy
TTITLE1=Dear Old Southland
TTITLE2=St. James Infirmary
TTITLE3=Singin' The Blues
TTITLE4=Winin' Boy Blues
TTITLE5=West End Blues
TTITLE6=Blue Drag
TTITLE7=Just A Closer Walk With Thee
TTITLE8=Bright Mississippi
TTITLE9=Day Dream
TTITLE10=Long, Long Journey
TTITLE11=Solitude
TTITLE12=That's My Home
TTITLE13=The Old Rugged Cross
EXTD=YEAR: 2009
EXTT0=
EXTT1=
EXTT2=
EXTT3=
EXTT4=
EXTT5=
EXTT6=
EXTT7=
EXTT8=
EXTT9=
EXTT10=
EXTT11=
EXTT12=
EXTT13=
PLAYORDER=
